<svg xmlns="http://www.w3.org/2000/svg" width="18" height="18" viewBox="0 0 18 18" fill="none"><path fill-rule="evenodd" clip-rule="evenodd" d="M1.07393 2.40687L1.13439 2.34369C2.74057 0.73736 3.78654 0.311585 4.90256 0.953343C5.22358 1.13795 5.52454 1.39635 5.93378 1.812L7.18908 3.11368C7.88242 3.87027 8.04008 4.59598 7.81433 5.44587L7.78317 5.55838L7.74867 5.67026L7.58083 6.16261C7.22167 7.26676 7.37167 7.88974 8.64958 9.16733C9.9785 10.4959 10.5988 10.6046 11.7881 10.189L12.0001 10.1153L12.2564 10.0321L12.3686 10.0009C13.2719 9.75991 14.035 9.95224 14.8443 10.761L15.8557 11.738L16.1535 12.0308C16.4836 12.3674 16.7017 12.6342 16.8629 12.9161C17.5007 14.0317 17.0744 15.0771 15.4219 16.7234L15.2647 16.8827C15.018 17.1205 14.7875 17.2908 14.4488 17.4517C13.8804 17.7216 13.2088 17.8233 12.4285 17.7147C10.5056 17.4473 8.06683 15.9302 4.97657 12.8407C4.72502 12.5892 4.48408 12.3426 4.25354 12.1007L3.80623 11.6233C-0.385318 7.06937 -0.755093 4.27189 0.962649 2.51741L1.07393 2.40687ZM4.92201 2.56777C4.65052 2.3001 4.4533 2.13694 4.27943 2.03696C3.89482 1.81579 3.47958 1.90928 2.71107 2.57073L2.46961 2.78644C2.42749 2.82533 2.38441 2.86569 2.34032 2.90756L2.06342 3.17725L2.03847 3.20843L1.85076 3.39702C1.39713 3.86036 1.18226 4.42586 1.36742 5.39838C1.67126 6.99423 3.06202 9.15908 5.86033 11.9567C8.77608 14.8717 10.9977 16.2537 12.6007 16.4767C13.5352 16.6067 14.0118 16.3803 14.4979 15.8823L14.8687 15.5082C15.0425 15.3263 15.191 15.1614 15.3164 15.0108L15.4875 14.7952C15.9247 14.2129 15.9647 13.8635 15.7777 13.5364C15.7066 13.4119 15.6031 13.2755 15.4524 13.1087L15.2481 12.8928L15.1271 12.7718L13.8511 11.5397C13.4247 11.1464 13.1332 11.0907 12.6908 11.2087L12.5631 11.2454L12.0345 11.4248C10.5011 11.9201 9.39483 11.6799 7.76575 10.0513C6.07857 8.36449 5.88071 7.23813 6.44602 5.6163L6.48228 5.51208L6.58257 5.20993L6.63186 5.01735C6.71925 4.59821 6.61947 4.30597 6.16891 3.85534C6.15036 3.83679 6.12962 3.81588 6.10706 3.79299L4.92201 2.56777Z" fill="#40B5E8"/></svg>